PathFileType	4	(X/Y/Z)	C:/Users/beibeiliu/ov580/test_trc/User3\sequence.17_training_dense_right.trc
DataRate	CameraRate	NumFrames	NumMarkers	Units	OrigDataRate	OrigDataStartFrame	OrigNumFrames
120	120	8	19	mm	120	124	247
Frame#	Time	ThumbCMC			ThumbMCP			ThumbIP			ThumbTip			IndexMCP			IndexPIP			IndexTip			MiddleMCP			MiddlePIP			MiddleTip			RingMCP			RingPIP			RingTip			PinkyMCP			PinkyPIP			PinkyTip			BackHand1			BackHand2			BackHand3	
		X0	Y0	Z0	X1	Y1	Z1	X2	Y2	Z2	X3	Y3	Z3	X4	Y4	Z4	X5	Y5	Z5	X6	Y6	Z6	X7	Y7	Z7	X8	Y8	Z8	X9	Y9	Z9	X10	Y10	Z10	X11	Y11	Z11	X12	Y12	Z12	X13	Y13	Z13	X14	Y14	Z14	X15	Y15	Z15	X16	Y16	Z16	X17	Y17	Z17	X18	Y18	Z18	
123	1.025	98.9903	-39.5495	37.7988	82.7778	-67.389	24.5474	77.1804	-93.5936	10.3686	91.4581	-113.591	0.140238	103.103	-52.258	-36.2059	92.3909	-64.4883	-61.6655	83.7881	-73.4644	-82.6789	110.504	-85.5496	-33.1772	91.7732	-105.505	-19.7958	98.8858	-90.199	17.9792	122.602	-93.0272	-23.4829	106.082	-113.817	-6.14049	107.921	-103.391	24.0383	151.309	-88.197	-13.0755	150.916	-100.627	-29.6813	148.833	-115.358	-53.226	156.064	-50.5453	4.7503	164.364	-39.7471	33.0914	130.081	-24.0578	19.9507	
124	1.03333	95.9444	-39.9501	42.4814	81.368	-70.523	28.0043	75.0613	-95.6566	13.5891	84.9864	-118.467	3.96913	97.3292	-56.2052	-32.9515	84.5366	-67.8318	-55.9981	77.6562	-79.2886	-73.0342	108.303	-83.5947	-25.638	87.8628	-106.682	-8.41176	102.362	-89.7247	25.7041	123.617	-96.6751	-17.7781	110.332	-116.527	0.847514	110.129	-101.612	30.8377	150.909	-89.4961	-15.7721	148.901	-104.189	-31.3831	147.117	-118.414	-49.2284	151.426	-47.0726	8.90097	161.057	-36.5986	31.1854	127.1	-23.8777	18.415	
125	1.04167	99.118	-41.9184	43.9685	80.4455	-69.1082	34.837	71.4612	-97.8357	20.1644	84.9988	-118.638	8.42189	91.547	-56.9551	-27.2322	75.692	-71.1998	-50.364	63.0484	-83.0963	-68.833	103.967	-86.6991	-21.4113	88.5359	-109.079	-1.57373	99.0434	-89.8901	30.4946	123.341	-95.4974	-13.1557	110.639	-117.687	5.23416	111.682	-100.143	37.0212	151.053	-88.6701	-9.96794	145.287	-104.369	-28.511	141.641	-117.108	-43.3114	151.466	-46.592	9.76205	159.871	-31.7264	30.7578	122.004	-23.6517	20.686	
126	1.05	95.4454	-38.5745	50.5243	78.1593	-68.8162	41.9322	73.2177	-96.0191	27.9166	87.4059	-120.126	14.1251	83.5869	-59.2263	-23.5306	73.1834	-72.8323	-41.4806	59.4134	-86.1835	-56.2662	99.8609	-87.931	-15.1727	90.8231	-111.684	5.85261	100.198	-87.9092	36.7273	116.181	-96.694	-9.08501	109.403	-117.347	11.8585	110.615	-101.611	40.5916	145.005	-90.4005	-11.0519	141.912	-105.122	-22.2994	141.113	-123.182	-41.3371	147.234	-48.0365	6.50964	157.109	-28.9097	33.5957	123.328	-25.3424	19.5992	
127	1.05833	99.1684	-36.7897	53.592	83.0056	-67.1598	46.9934	71.2778	-96.3503	35.0013	86.5668	-118.483	23.4033	84.0573	-63.1756	-19.5505	69.3292	-78.6908	-36.6777	55.6788	-92.0892	-50.3751	96.078	-89.4459	-9.5447	88.9301	-111.637	12.3178	101.187	-86.0983	42.5258	116.266	-99.6552	-2.90381	104.912	-116.395	21.1676	108.306	-99.7924	45.8233	144.937	-94.7136	-6.61035	140.587	-108.524	-15.7609	138.666	-124.605	-32.1851	145.585	-45.0671	11.1799	158.841	-30.5271	30.3035	121.925	-26.017	22.0983	
128	1.06667	100.487	-32.7514	54.5474	81.3879	-65.98	49.0909	72.5702	-94.5715	40.0975	84.6104	-115.885	31.5789	79.9168	-62.5644	-15.9776	62.9169	-76.936	-30.3154	50.9974	-92.6621	-42.9137	96.2584	-87.2879	-4.01089	85.4513	-109.429	19.5515	101.745	-85.5046	46.388	114.519	-99.9691	2.75359	101.999	-114.87	23.7125	109.922	-95.9323	54.1284	141.257	-96.6747	-1.49659	136.511	-110.989	-11.1334	133.388	-130.071	-25.8498	148.01	-49.0833	11.5802	161.63	-29.7276	32.6835	124.145	-24.2535	23.1769	
129	1.075	102.414	-29.4093	55.8585	84.3549	-60.2699	52.599	69.6611	-88.435	48.5437	81.0649	-112.638	39.9893	81.0647	-58.8775	-9.76053	60.3851	-74.8494	-24.4593	49.1935	-91.1923	-35.3169	90.8592	-91.6119	0.104506	78.0413	-103.273	28.7879	98.4896	-76.7763	51.0982	113.683	-97.3796	7.85613	98.5263	-111.202	32.7095	105.749	-88.8031	58.503	139.452	-98.7357	2.19688	128.334	-113.177	-7.96156	126.17	-131.833	-18.2602	148.442	-48.2417	12.9498	160.282	-34.4885	30.5269	129.863	-22.892	23.1091	
130	1.08333	104.752	-22.9243	54.9542	79.5524	-54.0924	55.5466	70.5663	-79.9244	50.8632	72.8876	-107.147	45.5951	80.1567	-56.1128	-8.61199	56.5122	-69.0789	-21.3909	43.6907	-83.0883	-31.8094	87.3825	-80.3327	2.10734	73.3947	-97.2459	27.9619	94.9103	-74.9917	52.4275	105.941	-92.8853	10.0391	92.7022	-105.713	37.0718	98.9524	-86.2083	58.966	134.392	-97.1825	5.39502	125.474	-115.119	-4.77389	117.669	-129.142	-14.3382	143.5	-49.8291	10.9527	164.852	-31.7176	31.701	132.81	-21.1769	23.1538	
